<svg width="110" height="110" viewBox="0 0 110 110" fill="none" xmlns="http://www.w3.org/2000/svg">
<path d="M54.9998 9.16699C29.6998 9.16699 9.1665 29.7003 9.1665 55.0003C9.1665 80.3003 29.6998 100.834 54.9998 100.834C80.2998 100.834 100.833 80.3003 100.833 55.0003C100.833 29.7003 80.2998 9.16699 54.9998 9.16699ZM45.8332 77.917L22.9165 55.0003L29.379 48.5378L45.8332 64.9462L80.6207 30.1587L87.0832 36.667L45.8332 77.917Z" fill="#C0E83E"/>
<path d="M110 55C110 85.3757 85.3757 110 55 110C24.6243 110 0 85.3757 0 55C0 24.6243 24.6243 0 55 0C85.3757 0 110 24.6243 110 55ZM1.58608 55C1.58608 84.4997 25.5003 108.414 55 108.414C84.4997 108.414 108.414 84.4997 108.414 55C108.414 25.5003 84.4997 1.58608 55 1.58608C25.5003 1.58608 1.58608 25.5003 1.58608 55Z" fill="#C0E83E"/>
</svg>
